<mxfile host="Electron" modified="2025-01-07T14:32:03.446Z" agent="Mozilla/5.0 (Windows NT 10.0; Win64; x64) AppleWebKit/537.36 (KHTML, like Gecko) draw.io/21.3.7 Chrome/112.0.5615.204 Electron/24.5.0 Safari/537.36" etag="2_X7d3D447F0TJuf4K2H" version="21.3.7" type="device">
  <diagram id="C5RBs43oDa-KdzZeNtuy" name="Page-1">
    <mxGraphModel dx="683" dy="437" grid="1" gridSize="10" guides="1" tooltips="1" connect="1" arrows="1" fold="1" page="1" pageScale="1" pageWidth="827" pageHeight="1169" math="0" shadow="0">
      <root>
        <mxCell id="WIyWlLk6GJQsqaUBKTNV-0" />
        <mxCell id="WIyWlLk6GJQsqaUBKTNV-1" parent="WIyWlLk6GJQsqaUBKTNV-0" />
        <mxCell id="ctnUMUqDntnqouxErcce-47" value="" style="rounded=0;whiteSpace=wrap;html=1;fillColor=#f5f5f5;fontColor=#333333;strokeColor=#666666;" vertex="1" parent="WIyWlLk6GJQsqaUBKTNV-1">
          <mxGeometry x="190" y="40" width="400" height="270" as="geometry" />
        </mxCell>
        <mxCell id="ctnUMUqDntnqouxErcce-0" value="&lt;b&gt;General Questions&lt;/b&gt;" style="rounded=0;whiteSpace=wrap;html=1;fillColor=#ffe6cc;strokeColor=#d79b00;" vertex="1" parent="WIyWlLk6GJQsqaUBKTNV-1">
          <mxGeometry x="210" y="110" width="120" height="40" as="geometry" />
        </mxCell>
        <mxCell id="ctnUMUqDntnqouxErcce-36" style="edgeStyle=orthogonalEdgeStyle;rounded=0;orthogonalLoop=1;jettySize=auto;html=1;entryX=0.5;entryY=1;entryDx=0;entryDy=0;dashed=1;" edge="1" parent="WIyWlLk6GJQsqaUBKTNV-1" source="ctnUMUqDntnqouxErcce-4" target="ctnUMUqDntnqouxErcce-6">
          <mxGeometry relative="1" as="geometry">
            <Array as="points">
              <mxPoint x="510" y="190" />
            </Array>
          </mxGeometry>
        </mxCell>
        <mxCell id="ctnUMUqDntnqouxErcce-37" style="edgeStyle=orthogonalEdgeStyle;rounded=0;orthogonalLoop=1;jettySize=auto;html=1;entryX=0;entryY=1;entryDx=0;entryDy=0;dashed=1;" edge="1" parent="WIyWlLk6GJQsqaUBKTNV-1" source="ctnUMUqDntnqouxErcce-4" target="ctnUMUqDntnqouxErcce-7">
          <mxGeometry relative="1" as="geometry" />
        </mxCell>
        <mxCell id="ctnUMUqDntnqouxErcce-38" style="edgeStyle=orthogonalEdgeStyle;rounded=0;orthogonalLoop=1;jettySize=auto;html=1;entryX=1;entryY=0;entryDx=0;entryDy=0;" edge="1" parent="WIyWlLk6GJQsqaUBKTNV-1" source="ctnUMUqDntnqouxErcce-4" target="ctnUMUqDntnqouxErcce-0">
          <mxGeometry relative="1" as="geometry" />
        </mxCell>
        <mxCell id="ctnUMUqDntnqouxErcce-39" style="edgeStyle=orthogonalEdgeStyle;rounded=0;orthogonalLoop=1;jettySize=auto;html=1;entryX=0.5;entryY=0;entryDx=0;entryDy=0;dashed=1;" edge="1" parent="WIyWlLk6GJQsqaUBKTNV-1" source="ctnUMUqDntnqouxErcce-4" target="ctnUMUqDntnqouxErcce-5">
          <mxGeometry relative="1" as="geometry">
            <Array as="points">
              <mxPoint x="270" y="190" />
            </Array>
          </mxGeometry>
        </mxCell>
        <mxCell id="ctnUMUqDntnqouxErcce-4" value="&lt;b style=&quot;border-color: var(--border-color);&quot;&gt;Chatbot &lt;br&gt;Selector&lt;/b&gt;" style="rhombus;whiteSpace=wrap;html=1;fillColor=#dae8fc;strokeColor=#6c8ebf;" vertex="1" parent="WIyWlLk6GJQsqaUBKTNV-1">
          <mxGeometry x="330" y="130" width="120" height="120" as="geometry" />
        </mxCell>
        <mxCell id="ctnUMUqDntnqouxErcce-5" value="&lt;b&gt;Alternative&lt;br&gt;Medications&lt;br&gt;&lt;/b&gt;" style="rounded=0;whiteSpace=wrap;html=1;fillColor=#d5e8d4;strokeColor=#82b366;" vertex="1" parent="WIyWlLk6GJQsqaUBKTNV-1">
          <mxGeometry x="210" y="230" width="120" height="40" as="geometry" />
        </mxCell>
        <mxCell id="ctnUMUqDntnqouxErcce-6" value="&lt;b&gt;Side Effects&lt;br&gt;Identifier&lt;br&gt;&lt;/b&gt;" style="rounded=0;whiteSpace=wrap;html=1;fillColor=#e1d5e7;strokeColor=#9673a6;" vertex="1" parent="WIyWlLk6GJQsqaUBKTNV-1">
          <mxGeometry x="450" y="110" width="120" height="40" as="geometry" />
        </mxCell>
        <mxCell id="ctnUMUqDntnqouxErcce-7" value="&lt;b&gt;Medication&lt;br&gt;Recommender&lt;br&gt;&lt;/b&gt;" style="rounded=0;whiteSpace=wrap;html=1;fillColor=#f8cecc;strokeColor=#b85450;" vertex="1" parent="WIyWlLk6GJQsqaUBKTNV-1">
          <mxGeometry x="450" y="230" width="120" height="40" as="geometry" />
        </mxCell>
        <mxCell id="ctnUMUqDntnqouxErcce-41" value="&lt;b&gt;&lt;font style=&quot;font-size: 16px;&quot;&gt;&lt;u&gt;Chainlit Application&lt;/u&gt;&lt;/font&gt;&lt;/b&gt;" style="text;html=1;strokeColor=none;fillColor=none;align=center;verticalAlign=middle;whiteSpace=wrap;rounded=0;" vertex="1" parent="WIyWlLk6GJQsqaUBKTNV-1">
          <mxGeometry x="292" y="50" width="196" height="30" as="geometry" />
        </mxCell>
        <mxCell id="ctnUMUqDntnqouxErcce-42" value="&lt;font style=&quot;font-size: 8px;&quot;&gt;&lt;i&gt;Selected Chat&lt;/i&gt;&lt;/font&gt;" style="text;html=1;strokeColor=none;fillColor=none;align=center;verticalAlign=middle;whiteSpace=wrap;rounded=0;" vertex="1" parent="WIyWlLk6GJQsqaUBKTNV-1">
          <mxGeometry x="330" y="82" width="60" height="30" as="geometry" />
        </mxCell>
        <mxCell id="ctnUMUqDntnqouxErcce-44" value="&lt;span style=&quot;font-size: 8px;&quot;&gt;&lt;i&gt;Not Selected&lt;/i&gt;&lt;/span&gt;" style="text;html=1;strokeColor=none;fillColor=none;align=center;verticalAlign=middle;whiteSpace=wrap;rounded=0;" vertex="1" parent="WIyWlLk6GJQsqaUBKTNV-1">
          <mxGeometry x="270" y="182" width="60" height="30" as="geometry" />
        </mxCell>
        <mxCell id="ctnUMUqDntnqouxErcce-45" value="&lt;span style=&quot;font-size: 8px;&quot;&gt;&lt;i&gt;Not Selected&lt;/i&gt;&lt;/span&gt;" style="text;html=1;strokeColor=none;fillColor=none;align=center;verticalAlign=middle;whiteSpace=wrap;rounded=0;" vertex="1" parent="WIyWlLk6GJQsqaUBKTNV-1">
          <mxGeometry x="450" y="182" width="60" height="30" as="geometry" />
        </mxCell>
        <mxCell id="ctnUMUqDntnqouxErcce-46" value="&lt;span style=&quot;font-size: 8px;&quot;&gt;&lt;i&gt;Not Selected&lt;/i&gt;&lt;/span&gt;" style="text;html=1;strokeColor=none;fillColor=none;align=center;verticalAlign=middle;whiteSpace=wrap;rounded=0;" vertex="1" parent="WIyWlLk6GJQsqaUBKTNV-1">
          <mxGeometry x="390" y="267" width="60" height="30" as="geometry" />
        </mxCell>
      </root>
    </mxGraphModel>
  </diagram>
</mxfile>
